# xmcd CD database file
#
# Track frame offsets:
#	150
#	41715
#	73106
#	102663
#	131148
#	159138
#	214533
#
# Disc length: 3410 seconds
#
# Revision: 0
# Processed by: cddbd v1.5.1PL0 Copyright (c) Steve Scherf et al.
# Submitted via: CDex 1.51
#
DISCID=620d5007
DTITLE=Art Blakey and Wynton Marsalis - Trumpet Star
DYEAR=1980
DGENRE=Jazz
TTITLE0=Angel Eyes
TTITLE1=Round ' Bout Midnight
TTITLE2=Wheel Within A Wheel
TTITLE3=Gypsey
TTITLE4=Jody
TTITLE5=Time Will Tell
TTITLE6=My Funny Valentine
EXTD=YEAR: 1980
EXTT0=
EXTT1=
EXTT2=
EXTT3=
EXTT4=
EXTT5=
EXTT6=
PLAYORDER=
